<svg width="84" height="73" viewBox="0 0 84 73" fill="none" xmlns="http://www.w3.org/2000/svg">
<g id="Group 31">
<g id="Group 32">
<path id="path28" fill-rule="evenodd" clip-rule="evenodd" d="M51.9965 37.1925C50.171 37.2524 48.3625 37.1453 46.6067 36.8804C37.0804 35.4387 29.1266 29.2935 28.9212 19.2402C28.8501 13.7246 31.9334 10.6127 35.8761 9.77661C39.7918 8.94653 44.5108 10.2875 47.8485 13.7479C53.564 19.6746 54.7484 28.684 51.9965 37.1925V37.1925ZM53.6248 38.6999C53.205 39.8822 52.7079 41.0525 52.1404 42.2042C47.9094 50.7764 39.7274 58.2361 28.0829 61.0405C24.3649 61.9365 20.622 62.3991 16.8779 62.3266C13.155 62.2548 9.44567 61.6592 5.76336 60.689C5.45332 60.6161 5.26008 60.3051 5.33337 59.9952C5.40664 59.6848 5.71823 59.4926 6.02728 59.5659C9.64653 60.3169 13.2706 60.6221 16.8857 60.585C20.4867 60.5478 24.0837 60.1646 27.6529 59.281C38.6618 56.5539 46.3699 49.4556 50.3363 41.3188C50.7403 40.4901 51.1044 39.6505 51.4268 38.8037C49.7149 38.829 48.0192 38.717 46.3683 38.4735C35.9892 36.9425 27.3959 30.231 27.087 19.2843C26.8477 12.5746 30.6279 8.73047 35.4176 7.66542C39.9703 6.65301 45.4964 8.23868 49.3724 12.2831C55.4017 18.577 56.8731 28.0334 54.1686 37.0492C60.6494 36.3873 67.1572 33.657 72.0708 28.6522C75.8671 24.7857 77.9467 20.1387 78.7958 15.4473C79.4452 11.8686 79.2605 8.28141 78.737 4.91319C78.4943 3.35251 78.2608 1.8407 77.8405 0.396884C77.7963 0.286463 77.8493 0.161099 77.9595 0.11723C78.0706 0.0730139 78.1961 0.127093 78.2403 0.237514C78.9496 1.61775 79.6062 3.06427 80.0322 4.63825C80.9678 8.10437 81.0335 11.9488 80.4029 15.7269C79.5656 20.7364 77.2735 25.6718 73.2277 29.7886C67.8597 35.2517 60.6942 38.1308 53.6248 38.6999" fill="#040606"/>
<path id="path30" fill-rule="evenodd" clip-rule="evenodd" d="M5.67148 60.298C7.41387 61.2494 10.0451 62.6753 10.3292 62.8257L15.2993 65.619L23.1341 70.6082C23.3163 70.7111 23.3798 70.9425 23.2757 71.1245C23.1726 71.306 22.9412 71.3694 22.76 71.2657L14.4483 67.214L9.33499 64.7243C8.98906 64.5462 5.18708 62.5682 3.67429 61.7431C2.76125 61.2451 2.49045 60.5447 2.48842 60.5212C2.45561 60.1626 2.58907 59.6123 3.21931 59.2042C4.03415 58.6774 6.51051 58.0351 6.76032 57.9536L18.6877 53.9752C22.7978 52.6485 24.0349 51.8989 24.4285 52.8908C24.521 53.0906 24.478 53.3082 24.0902 53.7668C23.9731 53.9063 23.7624 53.9821 23.5501 54.0895C22.1772 54.7823 19.6206 55.4837 19.2904 55.6184L7.44781 59.9913C7.3414 60.028 6.46031 60.1235 5.67148 60.298" fill="#040606"/>
</g>
</g>
</svg>
